<svg width="470" height="470" viewBox="0 0 470 470" fill="none" xmlns="http://www.w3.org/2000/svg">
<path d="M157.193 103C124.993 103 99 128.993 99 161.193C99 193.393 124.993 219.386 157.193 219.386H176.591V258.182H157.193C124.993 258.182 99 284.175 99 316.375C99 348.575 124.993 374.568 157.193 374.568C189.393 374.568 215.386 348.575 215.386 316.375V296.977H254.182V316.375C254.182 348.575 280.175 374.568 312.375 374.568C344.575 374.568 370.568 348.575 370.568 316.375C370.568 284.175 344.575 258.182 312.375 258.182H292.977V219.386H312.375C344.575 219.386 370.568 193.393 370.568 161.193C370.568 128.993 344.575 103 312.375 103C280.175 103 254.182 128.993 254.182 161.193V180.591H215.386V161.193C215.386 128.993 189.393 103 157.193 103ZM157.193 141.795C168.056 141.795 176.591 150.33 176.591 161.193V180.591H157.193C146.33 180.591 137.795 172.056 137.795 161.193C137.795 150.33 146.33 141.795 157.193 141.795ZM312.375 141.795C323.238 141.795 331.773 150.33 331.773 161.193C331.773 172.056 323.238 180.591 312.375 180.591H292.977V161.193C292.977 150.33 301.512 141.795 312.375 141.795ZM215.386 219.386H254.182V258.182H215.386V219.386ZM157.193 296.977H176.591V316.375C176.591 327.238 168.056 335.773 157.193 335.773C146.33 335.773 137.795 327.238 137.795 316.375C137.795 305.512 146.33 296.977 157.193 296.977ZM292.977 296.977H312.375C323.238 296.977 331.773 305.512 331.773 316.375C331.773 327.238 323.238 335.773 312.375 335.773C301.512 335.773 292.977 327.238 292.977 316.375V296.977Z" fill="#FF5722"/>
<circle cx="235" cy="235" r="216.5" stroke="#FF551F" stroke-width="37"/>
</svg>
